<svg viewBox="0 0 320 424" xmlns="http://www.w3.org/2000/svg" xmlns:xlink="http://www.w3.org/1999/xlink"><defs><path id="a" d="M.893.693H265.67V401.96H.893z"/><path id="c" d="M0 402.307h268.639V1.04H0z"/><filter x="-8.3%" y="-200%" width="116.6%" height="500%" filterUnits="objectBoundingBox" id="e"><feGaussianBlur stdDeviation="8" in="SourceGraphic"/></filter></defs><g transform="translate(15 -1)" fill="none" fill-rule="evenodd"><g transform="translate(8)"><g transform="translate(1.039 .346)"><mask id="b" fill="#fff"><use xlink:href="#a"/></mask><path d="M265.27 383.14c0 10.172-8.249 18.422-18.422 18.422H19.713c-10.172 0-18.421-8.25-18.421-18.423V18.8c0-9.783 7.932-17.716 17.715-17.716h228.548c9.782 0 17.715 7.933 17.715 17.715V383.14zM247.9.691H18.661C8.843.692.892 8.653.892 18.462v365.022c0 10.208 8.27 18.478 18.477 18.478h227.824c10.208 0 18.477-8.27 18.477-18.478V18.463c0-9.81-7.952-17.77-17.77-17.77z" fill="#AFB1B2" mask="url(#b)"/></g><mask id="d" fill="#fff"><use xlink:href="#c"/></mask><path d="M14.636 360.99h239.075V42.364H14.636V360.99zM249.095 1.447c-.163-.019-.326-.019-.498-.019H20.048c-9.782 0-17.715 7.933-17.715 17.717v364.34c0 10.172 8.25 18.423 18.423 18.423h227.133c10.172 0 18.422-8.25 18.422-18.423V19.145c0-9.611-7.66-17.445-17.216-17.698z" fill="#010101" mask="url(#d)"/></g><path d="M132.805 373c-2.1 0-3.805 1.723-3.805 3.85v10.3c0 2.126 1.704 3.85 3.805 3.85h20.389c2.102 0 3.806-1.724 3.806-3.85v-10.236c0-2.161-1.733-3.914-3.868-3.914h-20.327z" fill="#636363"/><path d="M152.549 389.941H133.45c-1.886 0-3.414-1.548-3.414-3.457v-8.968c0-1.91 1.528-3.457 3.414-3.457h19.098c1.886 0 3.414 1.548 3.414 3.457v8.968c0 1.91-1.528 3.457-3.414 3.457" fill="#070707"/><ellipse fill="#000" filter="url(#e)" cx="145" cy="399" rx="145" ry="6"/></g></svg>